<svg xmlns="http://www.w3.org/2000/svg" width="119.841" height="120" viewBox="0 0 119.841 120">
  <g id="five" transform="translate(-0.079 0)">
    <path id="Path_207297" data-name="Path 207297" d="M106.842,108.758c-18.362,14.99-75.7,14.99-93.684,0-18.362-14.99-16.488-79.07,0-95.933s77.2-16.863,93.684,0S125.2,93.769,106.842,108.758Z" fill="#14a800"/>
    <path id="Path_207298" data-name="Path 207298" d="M60.375,82.526C43.886,95.642,25.524,102.388,8.286,102.762-4.455,81.027-1.831,28.19,13.158,12.825,26.649-1.04,68.994-3.663,93.352,4.956,99.347,29.689,86.981,61.166,60.375,82.526Z" fill="#14a800"/>
    <path id="Path_207299" data-name="Path 207299" d="M81.36,23.318v14.24H52.88V49.549c2.248-.749,4.5-.749,7.495-.749a27.028,27.028,0,0,1,17.987,6.371c4.872,4.122,7.495,9.743,7.495,17.238a22.265,22.265,0,0,1-7.87,17.613A28.933,28.933,0,0,1,58.5,97.141c-9.743,0-17.987-3.747-24.733-10.867l8.619-11.992a16.29,16.29,0,0,0,2.623,2.248c1.124.749,3,2.248,5.621,3.747a17.083,17.083,0,0,0,8.244,2.248A11.453,11.453,0,0,0,66.37,79.9c2.248-1.5,3.373-4.122,3.373-7.495a8.934,8.934,0,0,0-3.373-7.495c-2.248-1.874-5.246-2.623-8.994-2.623s-7.87,1.5-12.741,4.122l-6.745-7.12V23.318Z" fill="#fff"/>
  </g>
</svg>
