<svg xmlns="http://www.w3.org/2000/svg" width="119.786" height="120" viewBox="0 0 119.786 120">
  <g id="four" transform="translate(-0.107 0)">
    <path id="Path_207294" data-name="Path 207294" d="M106.815,108.758c-18.362,14.99-75.7,14.99-93.684,0s-16.488-79.07,0-95.933,77.2-16.863,93.684,0S125.177,93.769,106.815,108.758Z" fill="#14a800"/>
    <path id="Path_207295" data-name="Path 207295" d="M60.347,82.526C43.859,95.642,25.5,102.388,8.259,102.762-4.482,81.027-1.859,28.19,13.131,12.825,26.621-1.04,68.966-3.663,93.324,4.956,99.32,29.689,86.954,61.166,60.347,82.526Z" fill="#14a800"/>
    <path id="Path_207296" data-name="Path 207296" d="M62.6,64.914V52.173H77.96V64.914H86.2V78.779H77.96V96.017H62.6V78.779H33.366V66.413l25.857-42.72H76.836L52.1,64.914Z" fill="#fff"/>
  </g>
</svg>
