<svg id="ico_24_communication_call" data-name="ico / 24 / communication / call" xmlns="http://www.w3.org/2000/svg" width="32" height="32" viewBox="0 0 32 32">
  <rect id="Bounding_box" data-name="Bounding box" width="32" height="32" fill="rgba(255,255,255,0)"/>
  <path id="Icon_color" data-name="Icon color" d="M20.222,26a14.545,14.545,0,0,1-6.846-1.719l-.65-.361A26,26,0,0,1,2.138,13.334l-.361-.65A14.545,14.545,0,0,1,0,5.78V4.812A2.889,2.889,0,0,1,.852,2.761L3.293.32A1.083,1.083,0,0,1,5,.537l3.25,5.575A1.444,1.444,0,0,1,8.016,7.86l-2.73,2.73a.722.722,0,0,0-.13.852l.506.953a19.543,19.543,0,0,0,7.944,7.93l.953.52a.722.722,0,0,0,.852-.13l2.73-2.73a1.444,1.444,0,0,1,1.748-.231L25.465,21a1.083,1.083,0,0,1,.217,1.7L23.24,25.15A2.889,2.889,0,0,1,21.189,26Z" transform="translate(3 2.998)" fill="#14a800"/>
</svg>
