<svg id="one" xmlns="http://www.w3.org/2000/svg" width="120" height="117.778" viewBox="0 0 120 117.778">
  <path id="Path_207200" data-name="Path 207200" d="M106.97,106.716c-18.386,14.712-75.8,14.712-93.808,0C-5.225,92-3.349,29.111,13.161,12.56s77.3-16.551,93.808,0S125.356,92,106.97,106.716Z" transform="translate(-0.066 0.028)" fill="#14a800"/>
  <path id="Path_207201" data-name="Path 207201" d="M60.431,81c-16.51,12.873-34.9,19.493-52.157,19.861C-4.484,79.527-1.857,27.668,13.152,12.588,26.66-1.02,69.062-3.6,93.452,4.864,99.456,29.139,87.073,60.034,60.431,81Z" transform="translate(-0.056 0)" fill="#14a800"/>
  <path id="Path_207202" data-name="Path 207202" d="M37.493,19.572H66.761V90.557H51.376V33.181H37.493V19.572Z" transform="translate(7.874 3.682)" fill="#fff"/>
</svg>
