<svg id="three" xmlns="http://www.w3.org/2000/svg" width="120" height="117.778" viewBox="0 0 120 117.778">
  <path id="Path_207206" data-name="Path 207206" d="M106.97,106.716c-18.386,14.712-75.8,14.712-93.808,0C-5.225,92-3.349,29.111,13.161,12.56s77.3-16.551,93.808,0S125.356,92,106.97,106.716Z" transform="translate(-0.066 0.028)" fill="#14a800"/>
  <path id="Path_207207" data-name="Path 207207" d="M60.431,81c-16.51,12.873-34.9,19.493-52.157,19.861C-4.484,79.527-1.857,27.668,13.152,12.588,26.66-1.02,69.062-3.6,93.452,4.864,99.456,29.139,87.073,60.034,60.431,81Z" transform="translate(-0.056 0)" fill="#14a800"/>
  <path id="Path_207208" data-name="Path 207208" d="M32.4,32.871V19.263H76.676V30.3L61.667,46.848c5.628,1.1,10.131,3.31,13.508,7.356a20.576,20.576,0,0,1,4.878,13.241q0,11.034-7.88,17.654c-5.253,4.414-11.632,6.253-19.887,6.253-7.88,0-16.135-2.942-24.39-8.459L34.65,70.387c6.754,4.781,13.133,6.988,18.386,6.988q5.066,0,7.88-2.207c2.251-1.471,3-3.678,3-6.62a7.922,7.922,0,0,0-3.752-6.988c-2.251-1.839-5.628-2.575-10.131-2.575a43.667,43.667,0,0,0-9.756,1.839V49.055L54.162,32.871Z" transform="translate(5.838 3.623)" fill="#fff"/>
</svg>
