<svg xmlns="http://www.w3.org/2000/svg" width="119.786" height="120" viewBox="0 0 119.786 120">
  <g id="two" transform="translate(-0.107 0)">
    <path id="Path_326" data-name="Path 326" d="M106.815,108.758c-18.362,14.99-75.7,14.99-93.684,0s-16.488-79.07,0-95.933,77.2-16.863,93.684,0S125.177,93.769,106.815,108.758Z" fill="#14a800"/>
    <path id="Path_327" data-name="Path 327" d="M60.347,82.527C43.859,95.642,25.5,102.388,8.259,102.762-4.482,81.028-1.859,28.19,13.131,12.825,26.621-1.04,68.966-3.663,93.324,4.956,99.32,29.689,86.954,61.166,60.347,82.527Z" fill="#14a800"/>
    <path id="Path_328" data-name="Path 328" d="M65.594,52.922a12.985,12.985,0,0,0,2.623-7.495,8.511,8.511,0,0,0-2.248-6,8.843,8.843,0,0,0-6-2.623c-4.5,0-8.994,3.373-13.116,9.743L33.741,39.057c3.373-5.246,7.12-9.369,11.242-11.992a28.431,28.431,0,0,1,15.364-4.122,24.89,24.89,0,0,1,16.488,6c4.872,4.122,7.12,9.369,7.12,16.114a22.583,22.583,0,0,1-3,10.867A62.928,62.928,0,0,1,70.465,69.036L57.35,82.527H86.2V97.142H34.865V85.15l21.36-21.735A90.6,90.6,0,0,0,65.594,52.922Z" fill="#fff"/>
  </g>
</svg>
